# OBJ file exported from Hammer

g default
v -40 8 40
v 40 8 40
v -36 8 -44
v 40 -8 32
v -32 -8 -48
v 32 -8 -48
v 36 8 -44
v -40 -8 32
v -16 -8 -48
v -16 -8 32
v 16 -8 -48
v 16 -8 32
v -40 -8 -16
v -16 -8 -16
v 16 -8 -16
v 40 -8 -16
v -40 -8 16
v -16 -8 16
v 16 -8 16
v 40 -8 16
v -16 -16 16
v -16 -16 -16
v 16 -16 -16
v 16 -16 16
v -16 -24 16
v -16 -24 -16
v 16 -24 -16
v 16 -24 16
v -4 -24 4
v -4 -24 -4
v 4 -24 -4
v 4 -24 4
v -4 -52 4
v -4 -52 -4
v 4 -52 -4
v 4 -52 4
v -16 -56 16
v -16 -56 -16
v 16 -56 -16
v 16 -56 16
v -40 8 32
v 40 8 32
v -40 64 32
v -40 64 40
v 40 64 40
v 40 64 32
v -40 8 -40
v -40 -8 -40
v 40 -8 -40
v 40 8 -40
v -32 0 -48
v 32 0 -48
v -24 80 32
v -24 80 40
v -8 80 32
v -8 80 40
v 8 80 32
v 8 80 40
v 24 80 32
v 24 80 40

vn 0 -0.229753 0.973249
vn 0 -0.229753 0.973249
vn 1 0 -0
vn 1 0 -0
vn -0.707107 0 -0.707107
vn 0 0.447214 -0.894427
vn 0 -0.229753 0.973249
vn 1 0 -0
vn 0 0 -1
vn 0 -1 -0
vn 1 0 -0
vn 0 -1 -0
vn 0 -0.447214 0.894427
vn 0 -1 -0
vn 0 -1 -0
vn 0.707107 0 -0.707107
vn 0 -1 -0
vn -1 0 -0
vn -1 0 -0
vn 0 -0.447214 0.894427
vn -1 0 -0
vn -1 0 -0
vn -0.707107 0 -0.707107
vn 0 1 -0
vn 0 -1 -0
vn 0 0 -1
vn 0 -0.447214 0.894427
vn 0 -1 -0
vn 0 -1 -0
vn 0 -1 -0
vn 0 -1 -0
vn 0 0 -1
vn 0 -0.447214 0.894427
vn 0 -1 -0
vn 0 -1 -0
vn 0 -1 -0
vn -1 0 -0
vn 0 -1 -0
vn 0 -1 -0
vn -1 0 -0
vn 1 0 -0
vn 0 -1 -0
vn 0 -1 -0
vn 1 0 -0
vn 0 -1 -0
vn 0 -1 -0
vn 0 -1 -0
vn 0 0 -1
vn 0 -1 -0
vn 0 -1 -0
vn -1 0 -0
vn 0 -1 -0
vn 0 -1 -0
vn 0 -1 -0
vn 0 -1 -0
vn 0 -1 -0
vn 0 -1 -0
vn 1 0 -0
vn 0 -1 -0
vn 0 -1 -0
vn 0 0 1
vn 0 -1 -0
vn 0 -1 -0
vn 0 -1 -0
vn -1 0 -0
vn -1 0 -0
vn 0 0 -1
vn 0 0 -1
vn 1 0 -0
vn 1 0 -0
vn 0 0 1
vn 0 0 1
vn 0 0 1
vn -1 0 -0
vn 0 0 1
vn 1 0 -0
vn -1 0 -0
vn 0 0 -1
vn 0 0 -1
vn 1 0 -0
vn 0 -1 -0
vn -1 0 -0
vn 0 -1 -0
vn 0 0 -1
vn 0 -1 -0
vn 1 0 -0
vn 0 -1 -0
vn 0 0 1
vn 0 0 1
vn -1 0 -0
vn 0 0 1
vn 1 0 -0
vn -1 0 -0
vn 0 0 -1
vn 0 0 -1
vn 1 0 -0
vn -1 0 -0
vn 0 -1 -0
vn 0 0 -1
vn 0 -1 -0
vn 1 0 -0
vn 0 -1 -0
vn 0 0 1
vn 0 -1 -0
vn 0 -1 -0
vn 0 -1 -0
vn 0 -1 -0
vn 0 -1 -0
vn 0 -1 -0
vn 0 -1 -0
vn 0 -1 -0
vn 0 -1 -0
vn -0.162221 0.973328 -0.162221
vn -1 0 -0
vn 0.162221 0.973328 -0.162221
vn 0 0 -1
vn 0.162221 0.973328 0.162221
vn 1 0 -0
vn -0.162221 0.973328 0.162221
vn 0 0 1
vn 0 0 1
vn -1 0 -0
vn 0 0 1
vn 1 0 -0
vn -1 0 -0
vn 0 0 -1
vn 0 0 -1
vn 1 0 -0
vn 0 -1 -0
vn -0.162221 0.973328 0.162221
vn 0 -1 -0
vn -0.162221 0.973328 -0.162221
vn 0 -1 -0
vn 0.162221 0.973328 -0.162221
vn 0 -1 -0
vn 0.162221 0.973328 0.162221
vn -0.162221 0.973328 0.162221
vn -0.162221 0.973328 0.162221
vn 0.162221 0.973328 0.162221
vn 0.162221 0.973328 0.162221
vn -0.162221 0.973328 -0.162221
vn -0.162221 0.973328 -0.162221
vn 0.162221 0.973328 -0.162221
vn 0.162221 0.973328 -0.162221
vn -1 0 -0
vn 0 1 -0
vn 0 1 -0
vn 1 0 -0
vn 0 0 -1
vn 0 1 -0
vn -0.707107 0.707107 -0
vn -1 0 -0
vn -0.707107 0.707107 -0
vn 0 0 1
vn 0.707107 0.707107 -0
vn 1 0 -0
vn -0.707107 0.707107 -0
vn 0 0 -1
vn 0 0 -1
vn -1 0 -0
vn 0 0 -1
vn 1 0 -0
vn -1 0 -0
vn 0 -0.229753 0.973249
vn 0 0 1
vn 1 0 -0
vn 0 0.229753 -0.973249
vn -0.707107 0 -0.707107
vn -0.707107 0 -0.707107
vn 0 -1 -0
vn -0.707107 0 -0.707107
vn -1 0 -0
vn 0 0 -1
vn 0.707107 0 -0.707107
vn 0.707107 0 -0.707107
vn 0 1 -0
vn 0.707107 0 -0.707107
vn 1 0 -0
vn 0 1 -0
vn 0 0.447214 -0.894427
vn 0 0.229753 -0.973249
vn 0.707107 0 -0.707107
vn 0 0.229753 -0.973249
vn 0 0.229753 -0.973249
vn 0 0 -1
vn 0 1 -0
vn 0 1 -0
vn 0 0 1
vn -0.707107 0.707107 -0
vn 0 1 -0
vn 0 0 -1
vn 0 1 -0
vn 0 1 -0
vn 0 0 1
vn 0 1 -0
vn 0 1 -0
vn 0 0 -1
vn 0 1 -0
vn 0 1 -0
vn 0 0 1
vn 0 1 -0
vn 0 1 -0
vn 0 0 -1
vn 0.707107 0.707107 -0
vn 0.707107 0.707107 -0
vn 0 0 1
vn 0 1 -0
vn 0.707107 0.707107 -0

vt -1.6875 -0.5
vt -1.0625 -0.5
vt -0.6875 -0.5
vt -0.625 -0.5
vt 0 -0.4375
vt -1.65625 -0.5
vt -1.0625 -0.5
vt -0.625 -0.375
vt -1.625 -0.375
vt -1.5 0
vt -0.0625 -0.375
vt -1.0625 0.25
vt -1.5 -0.375
vt -1.6875 0.625
vt -1.0625 0.0625
vt 0 -0.375
vt -1.6875 0.0625
vt -0.25 -0.375
vt -0.6875 -0.5
vt -1.6875 -0.375
vt -0.6875 -0.5
vt -0.625 -0.5
vt -0.03125 -0.5
vt -1.6875 0.0625
vt -1.25 0
vt -1.5 -0.375
vt -1.25 -0.375
vt -1.5 0.625
vt -1.5 0
vt -1.5 0.25
vt -1.125 0
vt -1.25 -0.375
vt -1.0625 -0.375
vt -1.25 0.625
vt -1.25 0
vt -1.25 0.25
vt -0.5 -0.375
vt -1.6875 0.25
vt -1.5 0.5
vt -0.25 -0.375
vt -0.5 -0.375
vt -1.25 0.25
vt -1.0625 0.5
vt -0.25 -0.375
vt -1.6875 0.25
vt -1.5 0.25
vt -1.5 0.25
vt -1.25 -0.375
vt -1.25 0.25
vt -1.0625 0.25
vt -0.625 -0.375
vt -1.6875 0.5
vt -1.5 0.625
vt -1.5 0.5
vt -1.25 0.625
vt -1.25 0.5
vt -1.0625 0.625
vt -0.5 -0.375
vt -1.6875 0.5
vt -1.5 0.5
vt -1.5 -0.375
vt -1.25 0.5
vt -1.25 0.5
vt -1.0625 0.5
vt -0.25 -0.3125
vt -0.5 -0.3125
vt -1.25 -0.3125
vt -1.5 -0.3125
vt -0.5 -0.3125
vt -0.25 -0.3125
vt -1.5 -0.3125
vt -1.25 -0.3125
vt -1.5 -0.3125
vt -0.5 -0.375
vt -1.25 -0.375
vt -0.5 -0.3125
vt -0.25 -0.3125
vt -1.5 -0.375
vt -1.25 -0.3125
vt -0.25 -0.375
vt -1.5 0.25
vt -0.5 -0.25
vt -1.25 0.25
vt -1.5 -0.25
vt -1.25 0.5
vt -0.25 -0.25
vt -1.5 0.5
vt -1.25 -0.25
vt -1.5 -0.25
vt -0.5 -0.3125
vt -1.25 -0.3125
vt -0.5 -0.25
vt -0.25 -0.25
vt -1.5 -0.3125
vt -1.25 -0.25
vt -0.25 -0.3125
vt -0.34375 -0.25
vt -1.40625 0.40625
vt -1.34375 -0.25
vt -1.40625 0.34375
vt -0.40625 -0.25
vt -1.34375 0.34375
vt -1.40625 -0.25
vt -1.34375 0.40625
vt -1.40625 0.40625
vt -1.5 0.5
vt -1.25 0.5
vt -1.34375 0.40625
vt -1.40625 0.34375
vt -1.5 0.25
vt -1.34375 0.34375
vt -1.25 0.25
vt -1.40625 0.34375
vt -0.40625 -0.03125
vt -1.34375 0.34375
vt -1.40625 -0.03125
vt -1.34375 0.40625
vt -0.34375 -0.03125
vt -1.40625 0.40625
vt -1.34375 -0.03125
vt -1.40625 -0.03125
vt -0.40625 -0.25
vt -1.34375 -0.25
vt -0.40625 -0.03125
vt -0.34375 -0.03125
vt -1.40625 -0.25
vt -1.34375 -0.03125
vt -0.34375 -0.25
vt -1.5 0.25
vt -1.5 0.5
vt -1.25 0.25
vt -1.5 0.25
vt -1.25 0.5
vt -1.25 0.25
vt -1.5 0.5
vt -1.25 0.5
vt -1.5 0.5
vt -1.40625 0.40625
vt -1.34375 0.40625
vt -1.25 0.5
vt -1.5 0.25
vt -1.40625 0.34375
vt -1.25 0.25
vt -1.34375 0.34375
vt -0.0625 -0.5
vt -1.6875 0.625
vt -1.0625 0.0625
vt -0.625 -0.5
vt -1.6875 -0.5
vt -1.0625 0.625
vt -1.6875 0.6875
vt -0.625 -0.9375
vt -1.5625 0.6875
vt -1.6875 -0.9375
vt -1.0625 0.625
vt -0.6875 -0.9375
vt -1.6875 0.625
vt -1.5625 -1.0625
vt -1.6875 -0.9375
vt -0.625 -0.5
vt -1.0625 -0.5
vt -0.625 -0.9375
vt -0.6875 -0.9375
vt -1.6875 -0.5
vt -1.0625 -0.9375
vt -0.6875 -0.5
vt -1.625 -0.4375
vt 0 -0.375
vt -0.0625 -0.375
vt -1.625 0
vt -0.0625 -0.5
vt -0.0625 -0.375
vt -1.125 -0.375
vt 0 -0.4375
vt -0.0625 -0.5
vt -1.09375 0.03125
vt -0.0625 -0.375
vt -0.0625 -0.5
vt -1.65625 0.03125
vt -1.09375 -0.5
vt -1.125 -0.4375
vt -0.03125 -0.5
vt -1.625 -0.4375
vt -1.125 -0.4375
vt -1.4375 -1.0625
vt -1.5625 0.625
vt -1.4375 0.6875
vt -1.5625 -1.0625
vt -1.5625 0.625
vt -1.5625 0.6875
vt -1.3125 -1.0625
vt -1.4375 0.625
vt -1.3125 0.6875
vt -1.4375 -1.0625
vt -1.4375 0.625
vt -1.4375 0.6875
vt -1.1875 -1.0625
vt -1.3125 0.625
vt -1.1875 0.6875
vt -1.3125 -1.0625
vt -1.3125 0.625
vt -1.3125 0.6875
vt -1.0625 -0.9375
vt -1.1875 0.625
vt -1.0625 0.6875
vt -1.1875 -1.0625
vt -1.1875 0.625
vt -1.1875 0.6875

s off
g mesh_126

f 42/161/161 41/149/149 43/159/159 53/158/158 55/185/185 57/191/191 59/197/197 46/203/203
f 7/182/182 50/175/175 49/177/177 6/16/16 52/174/174
f 57/201/201 55/192/192 56/196/196 58/193/193
f 59/207/207 57/198/198 58/202/202 60/199/199
f 50/178/178 42/148/148 2/3/3 4/8/8 20/58/58 16/44/44 49/11/11
f 2/7/7 1/1/1 8/20/20 10/13/13 12/27/27 4/33/33
f 52/181/181 51/183/183 3/6/6 7/180/180
f 14/47/47 9/29/29 11/25/25 15/36/36
f 17/59/59 13/38/38 14/46/46 18/39/39
f 19/75/75 18/61/61 21/73/73 24/72/72
f 19/63/63 15/42/42 16/50/50 20/43/43
f 18/60/60 10/53/53 8/14/14 17/52/52
f 19/62/62 12/55/55 10/28/28 18/54/54
f 20/64/64 4/57/57 12/34/34 19/56/56
f 24/91/91 21/71/71 25/89/89 28/88/88
f 18/74/74 14/40/40 22/77/77 21/66/66
f 14/78/78 15/48/48 23/79/79 22/68/68
f 15/80/80 19/41/41 24/76/76 23/70/70
f 28/107/107 25/87/87 29/105/105 32/104/104
f 21/90/90 22/65/65 26/93/93 25/82/82
f 22/94/94 23/67/67 27/95/95 26/84/84
f 23/96/96 24/69/69 28/92/92 27/86/86
f 32/123/123 29/103/103 33/121/121 36/120/120
f 25/106/106 26/81/81 30/109/109 29/98/98
f 26/110/110 27/83/83 31/111/111 30/100/100
f 27/112/112 28/85/85 32/108/108 31/102/102
f 36/139/139 33/119/119 37/137/137 40/136/136
f 29/122/122 30/97/97 34/125/125 33/114/114
f 30/126/126 31/99/99 35/127/127 34/116/116
f 31/128/128 32/101/101 36/124/124 35/118/118
f 37/135/135 38/129/129 39/131/131 40/133/133
f 33/138/138 34/113/113 38/141/141 37/130/130
f 34/142/142 35/115/115 39/143/143 38/132/132
f 35/144/144 36/117/117 40/140/140 39/134/134
f 55/195/195 53/186/186 54/190/190 56/187/187
f 53/189/189 43/157/157 44/151/151 54/153/153
f 41/160/160 1/21/21 44/163/163 43/152/152
f 1/164/164 2/2/2 45/165/165 60/206/206 58/200/200 56/194/194 54/188/188 44/154/154
f 2/166/166 42/4/4 46/162/162 45/156/156
f 48/172/172 13/18/18 17/37/37 8/51/51 1/19/19 41/22/22 47/145/145
f 5/170/170 9/10/10 14/30/30 13/45/45 48/17/17
f 52/184/184 6/173/173 11/32/32 9/26/26 5/9/9 51/167/167
f 3/179/179 47/24/24 41/146/146 42/150/150 50/147/147 7/176/176
f 49/15/15 16/12/12 15/49/49 11/35/35 6/31/31
f 51/5/5 5/168/168 48/169/169 47/171/171 3/23/23
f 60/208/208 45/205/205 46/155/155 59/204/204

